<svg width="24" height="24" viewBox="0 0 24 24" fill="none" xmlns="http://www.w3.org/2000/svg">
<g clip-path="url(#clip0_88_5427)">
<path d="M11.992 21.288C10.5413 21.288 9.24 21.032 8.088 20.52C6.936 19.9867 6.01867 19.272 5.336 18.376C4.67467 17.48 4.312 16.488 4.248 15.4H8.76C8.84533 16.0827 9.176 16.648 9.752 17.096C10.3493 17.544 11.0853 17.768 11.96 17.768C12.8133 17.768 13.4747 17.5973 13.944 17.256C14.4347 16.9147 14.68 16.4773 14.68 15.944C14.68 15.368 14.3813 14.9413 13.784 14.664C13.208 14.3653 12.28 14.0453 11 13.704C9.67733 13.384 8.58933 13.0533 7.736 12.712C6.904 12.3707 6.17867 11.848 5.56 11.144C4.96267 10.44 4.664 9.49067 4.664 8.296C4.664 7.31467 4.94133 6.41867 5.496 5.608C6.072 4.79733 6.88267 4.15733 7.928 3.688C8.99467 3.21867 10.2427 2.984 11.672 2.984C13.784 2.984 15.4693 3.51733 16.728 4.584C17.9867 5.62933 18.68 7.048 18.808 8.84H14.52C14.456 8.136 14.1573 7.58133 13.624 7.176C13.112 6.74933 12.4187 6.536 11.544 6.536C10.7333 6.536 10.104 6.68533 9.656 6.984C9.22933 7.28267 9.016 7.69867 9.016 8.232C9.016 8.82933 9.31467 9.288 9.912 9.608C10.5093 9.90667 11.4373 10.216 12.696 10.536C13.976 10.856 15.032 11.1867 15.864 11.528C16.696 11.8693 17.4107 12.4027 18.008 13.128C18.6267 13.832 18.9467 14.7707 18.968 15.944C18.968 16.968 18.68 17.8853 18.104 18.696C17.5493 19.5067 16.7387 20.1467 15.672 20.616C14.6267 21.064 13.4 21.288 11.992 21.288Z" fill="#C4C8D6"/>
</g>
<defs>
<clipPath id="clip0_88_5427">
<rect width="24" height="24" fill="white"/>
</clipPath>
</defs>
</svg>
